<mxfile host="app.diagrams.net" agent="Mozilla/5.0 (Windows NT 10.0; Win64; x64) AppleWebKit/537.36 (KHTML, like Gecko) Chrome/131.0.0.0 Safari/537.36" version="25.0.3">
  <diagram name="第 1 页 的副本" id="IOBNxeSoZgeBU6ZEwcYh">
    <mxGraphModel dx="1050" dy="562" grid="1" gridSize="10" guides="1" tooltips="1" connect="1" arrows="1" fold="1" page="1" pageScale="1" pageWidth="827" pageHeight="1169" math="0" shadow="0">
      <root>
        <mxCell id="X-ymyclT9027GlUARyaM-0" />
        <mxCell id="X-ymyclT9027GlUARyaM-1" parent="X-ymyclT9027GlUARyaM-0" />
        <mxCell id="X-ymyclT9027GlUARyaM-21" value="karmadactl" style="rounded=1;whiteSpace=wrap;html=1;fillColor=#fff2cc;strokeColor=#d6b656;" parent="X-ymyclT9027GlUARyaM-1" vertex="1">
          <mxGeometry x="160" y="321" width="100" height="30" as="geometry" />
        </mxCell>
        <mxCell id="DcSIkLsTBMDkUyTbg4fx-28" style="edgeStyle=orthogonalEdgeStyle;rounded=0;orthogonalLoop=1;jettySize=auto;html=1;exitX=0.5;exitY=1;exitDx=0;exitDy=0;exitPerimeter=0;" parent="X-ymyclT9027GlUARyaM-1" source="X-ymyclT9027GlUARyaM-22" edge="1">
          <mxGeometry relative="1" as="geometry">
            <mxPoint x="330" y="500" as="targetPoint" />
          </mxGeometry>
        </mxCell>
        <mxCell id="DcSIkLsTBMDkUyTbg4fx-29" value="operation-scope=karmada/members/all" style="edgeLabel;html=1;align=center;verticalAlign=middle;resizable=0;points=[];" parent="DcSIkLsTBMDkUyTbg4fx-28" connectable="0" vertex="1">
          <mxGeometry x="0.4457" relative="1" as="geometry">
            <mxPoint as="offset" />
          </mxGeometry>
        </mxCell>
        <mxCell id="X-ymyclT9027GlUARyaM-22" value="" style="aspect=fixed;sketch=0;html=1;dashed=0;whitespace=wrap;verticalLabelPosition=bottom;verticalAlign=top;fillColor=#2875E2;strokeColor=#ffffff;points=[[0.005,0.63,0],[0.1,0.2,0],[0.9,0.2,0],[0.5,0,0],[0.995,0.63,0],[0.72,0.99,0],[0.5,1,0],[0.28,0.99,0]];shape=mxgraph.kubernetes.icon2;prIcon=user" parent="X-ymyclT9027GlUARyaM-1" vertex="1">
          <mxGeometry x="305" y="319" width="50" height="48" as="geometry" />
        </mxCell>
        <mxCell id="DcSIkLsTBMDkUyTbg4fx-11" value="" style="rounded=0;whiteSpace=wrap;html=1;dashed=1;" parent="X-ymyclT9027GlUARyaM-1" vertex="1">
          <mxGeometry x="160" y="510" width="440" height="120" as="geometry" />
        </mxCell>
        <mxCell id="DcSIkLsTBMDkUyTbg4fx-12" value="control plane&lt;div&gt;deployments&lt;/div&gt;" style="aspect=fixed;sketch=0;html=1;dashed=0;whitespace=wrap;verticalLabelPosition=bottom;verticalAlign=top;fillColor=#2875E2;strokeColor=#ffffff;points=[[0.005,0.63,0],[0.1,0.2,0],[0.9,0.2,0],[0.5,0,0],[0.995,0.63,0],[0.72,0.99,0],[0.5,1,0],[0.28,0.99,0]];shape=mxgraph.kubernetes.icon2;prIcon=deploy" parent="X-ymyclT9027GlUARyaM-1" vertex="1">
          <mxGeometry x="189" y="531" width="50" height="48" as="geometry" />
        </mxCell>
        <mxCell id="DcSIkLsTBMDkUyTbg4fx-13" value="member1&amp;nbsp;&lt;div&gt;deployments&lt;/div&gt;" style="aspect=fixed;sketch=0;html=1;dashed=0;whitespace=wrap;verticalLabelPosition=bottom;verticalAlign=top;fillColor=#2875E2;strokeColor=#ffffff;points=[[0.005,0.63,0],[0.1,0.2,0],[0.9,0.2,0],[0.5,0,0],[0.995,0.63,0],[0.72,0.99,0],[0.5,1,0],[0.28,0.99,0]];shape=mxgraph.kubernetes.icon2;prIcon=deploy" parent="X-ymyclT9027GlUARyaM-1" vertex="1">
          <mxGeometry x="299" y="531" width="50" height="48" as="geometry" />
        </mxCell>
        <mxCell id="DcSIkLsTBMDkUyTbg4fx-14" value="member2&amp;nbsp;&lt;div&gt;deployments&lt;/div&gt;" style="aspect=fixed;sketch=0;html=1;dashed=0;whitespace=wrap;verticalLabelPosition=bottom;verticalAlign=top;fillColor=#2875E2;strokeColor=#ffffff;points=[[0.005,0.63,0],[0.1,0.2,0],[0.9,0.2,0],[0.5,0,0],[0.995,0.63,0],[0.72,0.99,0],[0.5,1,0],[0.28,0.99,0]];shape=mxgraph.kubernetes.icon2;prIcon=deploy" parent="X-ymyclT9027GlUARyaM-1" vertex="1">
          <mxGeometry x="409" y="531" width="50" height="48" as="geometry" />
        </mxCell>
        <mxCell id="DcSIkLsTBMDkUyTbg4fx-15" value="member3&amp;nbsp;&lt;div&gt;deployments&lt;/div&gt;" style="aspect=fixed;sketch=0;html=1;dashed=0;whitespace=wrap;verticalLabelPosition=bottom;verticalAlign=top;fillColor=#2875E2;strokeColor=#ffffff;points=[[0.005,0.63,0],[0.1,0.2,0],[0.9,0.2,0],[0.5,0,0],[0.995,0.63,0],[0.72,0.99,0],[0.5,1,0],[0.28,0.99,0]];shape=mxgraph.kubernetes.icon2;prIcon=deploy" parent="X-ymyclT9027GlUARyaM-1" vertex="1">
          <mxGeometry x="519" y="531" width="50" height="48" as="geometry" />
        </mxCell>
        <mxCell id="DcSIkLsTBMDkUyTbg4fx-17" value="" style="endArrow=none;html=1;rounded=0;exitX=0.29;exitY=1.039;exitDx=0;exitDy=0;exitPerimeter=0;dashed=1;" parent="X-ymyclT9027GlUARyaM-1" edge="1">
          <mxGeometry width="50" height="50" relative="1" as="geometry">
            <mxPoint x="279.04999999999995" y="630.0045" as="sourcePoint" />
            <mxPoint x="279" y="510" as="targetPoint" />
          </mxGeometry>
        </mxCell>
        <mxCell id="DcSIkLsTBMDkUyTbg4fx-10" value="get deployments" style="rounded=0;whiteSpace=wrap;html=1;" parent="X-ymyclT9027GlUARyaM-1" vertex="1">
          <mxGeometry x="230" y="396" width="200" height="30" as="geometry" />
        </mxCell>
        <mxCell id="DcSIkLsTBMDkUyTbg4fx-25" value="karmada" style="text;html=1;align=center;verticalAlign=middle;whiteSpace=wrap;rounded=0;fillColor=#ffe6cc;strokeColor=#d79b00;" parent="X-ymyclT9027GlUARyaM-1" vertex="1">
          <mxGeometry x="160" y="510" width="120" height="20" as="geometry" />
        </mxCell>
        <mxCell id="DcSIkLsTBMDkUyTbg4fx-26" value="members" style="text;html=1;align=center;verticalAlign=middle;whiteSpace=wrap;rounded=0;fillColor=#dae8fc;strokeColor=#6c8ebf;" parent="X-ymyclT9027GlUARyaM-1" vertex="1">
          <mxGeometry x="280" y="510" width="320" height="20" as="geometry" />
        </mxCell>
        <mxCell id="DcSIkLsTBMDkUyTbg4fx-27" value="all" style="text;html=1;align=center;verticalAlign=middle;whiteSpace=wrap;rounded=0;fillColor=#f5f5f5;strokeColor=#666666;fontColor=#333333;" parent="X-ymyclT9027GlUARyaM-1" vertex="1">
          <mxGeometry x="160" y="630" width="440" height="20" as="geometry" />
        </mxCell>
        <mxCell id="dCqNZkoXZpaW4p_NZywB-1" value="" style="curved=1;endArrow=classic;html=1;rounded=0;entryX=0.531;entryY=0;entryDx=0;entryDy=0;entryPerimeter=0;dashed=1;" parent="X-ymyclT9027GlUARyaM-1" target="DcSIkLsTBMDkUyTbg4fx-26" edge="1">
          <mxGeometry width="50" height="50" relative="1" as="geometry">
            <mxPoint x="380" y="470" as="sourcePoint" />
            <mxPoint x="110" y="440" as="targetPoint" />
            <Array as="points">
              <mxPoint x="410" y="480" />
              <mxPoint x="430" y="490" />
            </Array>
          </mxGeometry>
        </mxCell>
        <mxCell id="dCqNZkoXZpaW4p_NZywB-8" value="" style="curved=1;endArrow=classic;html=1;rounded=0;dashed=1;" parent="X-ymyclT9027GlUARyaM-1" edge="1">
          <mxGeometry width="50" height="50" relative="1" as="geometry">
            <mxPoint x="420" y="470" as="sourcePoint" />
            <mxPoint x="440" y="660" as="targetPoint" />
            <Array as="points">
              <mxPoint x="450" y="480" />
              <mxPoint x="610" y="490" />
              <mxPoint x="620" y="590" />
              <mxPoint x="610" y="680" />
              <mxPoint x="460" y="690" />
            </Array>
          </mxGeometry>
        </mxCell>
        <mxCell id="dCqNZkoXZpaW4p_NZywB-9" value="" style="curved=1;endArrow=classic;html=1;rounded=0;dashed=1;" parent="X-ymyclT9027GlUARyaM-1" edge="1">
          <mxGeometry width="50" height="50" relative="1" as="geometry">
            <mxPoint x="350" y="470" as="sourcePoint" />
            <mxPoint x="210" y="500" as="targetPoint" />
            <Array as="points">
              <mxPoint x="310" y="480" />
              <mxPoint x="290" y="490" />
            </Array>
          </mxGeometry>
        </mxCell>
        <mxCell id="S63DA5QvvU1eanNb_bdT-0" value="control plane" style="aspect=fixed;sketch=0;html=1;dashed=0;whitespace=wrap;verticalLabelPosition=bottom;verticalAlign=top;fillColor=#2875E2;strokeColor=#ffffff;points=[[0.005,0.63,0],[0.1,0.2,0],[0.9,0.2,0],[0.5,0,0],[0.995,0.63,0],[0.72,0.99,0],[0.5,1,0],[0.28,0.99,0]];shape=mxgraph.kubernetes.icon2;prIcon=c_c_m" parent="X-ymyclT9027GlUARyaM-1" vertex="1">
          <mxGeometry x="415" y="319" width="50" height="48" as="geometry" />
        </mxCell>
        <mxCell id="S63DA5QvvU1eanNb_bdT-1" value="member1" style="aspect=fixed;sketch=0;html=1;dashed=0;whitespace=wrap;verticalLabelPosition=bottom;verticalAlign=top;fillColor=#2875E2;strokeColor=#ffffff;points=[[0.005,0.63,0],[0.1,0.2,0],[0.9,0.2,0],[0.5,0,0],[0.995,0.63,0],[0.72,0.99,0],[0.5,1,0],[0.28,0.99,0]];shape=mxgraph.kubernetes.icon2;prIcon=c_c_m" parent="X-ymyclT9027GlUARyaM-1" vertex="1">
          <mxGeometry x="550" y="241" width="50" height="48" as="geometry" />
        </mxCell>
        <mxCell id="S63DA5QvvU1eanNb_bdT-2" value="member2" style="aspect=fixed;sketch=0;html=1;dashed=0;whitespace=wrap;verticalLabelPosition=bottom;verticalAlign=top;fillColor=#2875E2;strokeColor=#ffffff;points=[[0.005,0.63,0],[0.1,0.2,0],[0.9,0.2,0],[0.5,0,0],[0.995,0.63,0],[0.72,0.99,0],[0.5,1,0],[0.28,0.99,0]];shape=mxgraph.kubernetes.icon2;prIcon=c_c_m" parent="X-ymyclT9027GlUARyaM-1" vertex="1">
          <mxGeometry x="550" y="310" width="50" height="48" as="geometry" />
        </mxCell>
        <mxCell id="S63DA5QvvU1eanNb_bdT-3" value="member3" style="aspect=fixed;sketch=0;html=1;dashed=0;whitespace=wrap;verticalLabelPosition=bottom;verticalAlign=top;fillColor=#2875E2;strokeColor=#ffffff;points=[[0.005,0.63,0],[0.1,0.2,0],[0.9,0.2,0],[0.5,0,0],[0.995,0.63,0],[0.72,0.99,0],[0.5,1,0],[0.28,0.99,0]];shape=mxgraph.kubernetes.icon2;prIcon=c_c_m" parent="X-ymyclT9027GlUARyaM-1" vertex="1">
          <mxGeometry x="550" y="378" width="50" height="48" as="geometry" />
        </mxCell>
        <mxCell id="S63DA5QvvU1eanNb_bdT-4" style="edgeStyle=orthogonalEdgeStyle;rounded=0;orthogonalLoop=1;jettySize=auto;html=1;exitX=0.995;exitY=0.63;exitDx=0;exitDy=0;exitPerimeter=0;entryX=0.005;entryY=0.63;entryDx=0;entryDy=0;entryPerimeter=0;" parent="X-ymyclT9027GlUARyaM-1" source="X-ymyclT9027GlUARyaM-22" target="S63DA5QvvU1eanNb_bdT-0" edge="1">
          <mxGeometry relative="1" as="geometry" />
        </mxCell>
        <mxCell id="S63DA5QvvU1eanNb_bdT-6" value="" style="shape=curlyBracket;whiteSpace=wrap;html=1;rounded=1;labelPosition=left;verticalLabelPosition=middle;align=right;verticalAlign=middle;size=0.5;" parent="X-ymyclT9027GlUARyaM-1" vertex="1">
          <mxGeometry x="510" y="289" width="20" height="120" as="geometry" />
        </mxCell>
        <mxCell id="S63DA5QvvU1eanNb_bdT-11" style="edgeStyle=orthogonalEdgeStyle;rounded=0;orthogonalLoop=1;jettySize=auto;html=1;exitX=0.995;exitY=0.63;exitDx=0;exitDy=0;exitPerimeter=0;entryX=0.1;entryY=0.5;entryDx=0;entryDy=0;entryPerimeter=0;" parent="X-ymyclT9027GlUARyaM-1" source="S63DA5QvvU1eanNb_bdT-0" target="S63DA5QvvU1eanNb_bdT-6" edge="1">
          <mxGeometry relative="1" as="geometry" />
        </mxCell>
        <mxCell id="S63DA5QvvU1eanNb_bdT-12" value="manage" style="edgeLabel;html=1;align=center;verticalAlign=middle;resizable=0;points=[];" parent="S63DA5QvvU1eanNb_bdT-11" connectable="0" vertex="1">
          <mxGeometry x="-0.0808" y="-1" relative="1" as="geometry">
            <mxPoint x="-1" y="-14" as="offset" />
          </mxGeometry>
        </mxCell>
        <mxCell id="S63DA5QvvU1eanNb_bdT-13" value="&lt;font style=&quot;font-size: 15px;&quot;&gt;multi-cluster perspective&lt;/font&gt;" style="text;html=1;align=center;verticalAlign=middle;whiteSpace=wrap;rounded=0;" parent="X-ymyclT9027GlUARyaM-1" vertex="1">
          <mxGeometry x="250" y="270" width="180" height="30" as="geometry" />
        </mxCell>
      </root>
    </mxGraphModel>
  </diagram>
</mxfile>
